<svg xmlns="http://www.w3.org/2000/svg" shape-rendering="geometricPrecision" text-rendering="geometricPrecision" image-rendering="optimizeQuality" fill-rule="evenodd" clip-rule="evenodd" viewBox="0 0 512 319.32"><path d="M34.85 148.05c-37.62-19.12-33.3-40.43 4.48-38.2l8.47 15.86 17.44-54.23c6.85-21.35 18.26-40.7 40.63-40.7h173.77l-.02.73c-.18 7.05-.2 13.92-.07 20.61H113.27c-17.03 0-25.76 14.77-31.01 31.01l-16.37 54.54v2.57-2.57h226.62c4.27 13.37 9.54 25.58 15.77 36.71 21.13 37.78 52.4 62.59 91.59 76.92l19.47-.12.97-.37c-.48 9.92-1.19 20.92-1.94 33.25v22.54c0 6.99-5.72 12.72-12.71 12.72h-54.24c-6.99 0-12.71-5.73-12.71-12.72v-10.2H82.37v10.2c0 6.99-5.72 12.72-12.71 12.72H15.42c-6.99 0-12.71-5.73-12.71-12.72v-29.29c0-.68.07-1.33.14-1.98-4.11-52.67-9.91-100.14 32-127.28zm342.49-43.52c6.72 3.87 11.09 7.09 16.29 12.82 13.51-21.73 28.16-33.77 47.21-50.86l1.86-.72h20.86c-27.96 31.06-49.64 56.66-69.05 94.1-10.1-21.61-19.11-36.52-39.26-50.35l22.09-4.99zm134.51-72.81c2.9 110.59-36.28 169.79-102.42 193.93l-.03-.02-.02.02c-66.14-24.14-105.33-83.34-102.42-193.93 35.7 1.88 74.91-7.96 102.42-31.72 31.01 23.88 63.47 33.78 102.47 31.72zm-18.8 14.87c2.38 90.31-29.62 138.65-83.63 158.36l-.02-.01-.01.01c-54.02-19.71-86.01-68.05-83.64-158.36 29.15 1.55 61.17-6.5 83.64-25.9 25.32 19.51 51.82 27.59 83.66 25.9zM154.19 252.54h111.93c1.37 0 2.48 1.1 2.48 2.46v17.84c0 1.36-1.11 2.47-2.48 2.47H154.19c-1.36 0-2.47-1.11-2.47-2.47V255c0-1.36 1.11-2.46 2.47-2.46zm-50.1-42.04-48.17-6.06c-11.37-1.27-14.43 3.53-10.55 13.32l5.2 12.65c1.68 3.25 3.91 5.62 6.51 7.26 3.05 1.89 6.72 2.81 10.8 2.98l42.96.34c10.38-.03 14.87-4.18 11.61-13.7-2.67-8.94-8.77-14.56-18.36-16.79z" fill="#2A55A3"/></svg>
