<svg width="21" height="16" viewBox="0 0 21 16" fill="none" xmlns="http://www.w3.org/2000/svg">
<path d="M16.9824 0.510112C17.3299 0.179306 17.7923 -0.00357696 18.272 5.30217e-05C18.7518 0.00368301 19.2113 0.193543 19.5538 0.529569C19.8962 0.865595 20.0947 1.3215 20.1074 1.8011C20.1201 2.28069 19.9459 2.74645 19.6217 3.1001L9.77967 15.4087C9.61044 15.591 9.40618 15.7373 9.17912 15.8388C8.95205 15.9404 8.70684 15.9951 8.45815 15.9997C8.20946 16.0043 7.9624 15.9587 7.73173 15.8656C7.50106 15.7726 7.29153 15.634 7.11566 15.4581L0.588818 8.93128C0.407056 8.76192 0.26127 8.55768 0.160155 8.33075C0.0590413 8.10382 0.00467067 7.85884 0.000287911 7.61044C-0.00409485 7.36204 0.0416001 7.11531 0.134646 6.88495C0.227692 6.65459 0.366182 6.44534 0.541856 6.26967C0.71753 6.09399 0.926788 5.9555 1.15715 5.86246C1.38751 5.76941 1.63425 5.72372 1.88265 5.7281C2.13105 5.73248 2.37602 5.78685 2.60296 5.88797C2.82989 5.98908 3.03413 6.13487 3.2035 6.31663L8.36873 11.4793L16.9355 0.564379C16.9509 0.545388 16.9649 0.527271 16.9824 0.510112Z" fill="#fff112"/>
</svg>
