<svg id="Layer_1" data-name="Layer 1" xmlns="http://www.w3.org/2000/svg" viewBox="0 0 122.88 64.9"><defs><style>.cls-1{fill-rule:evenodd;}</style></defs><title>car-back-collision</title><path class="cls-1" d="M0,18.65H12.3a24,24,0,0,1,12.49,3.23L38.16,32.16l13.37.89c2.73-.08,4.82.86,5.61,3.82v9c3.78,1,1.32,9.68-.37,11.59C55.27,59.17,53.92,59,51.92,59H40c2.29-17.23-15.26-20.9-22.5-11.52-2.39,3.1-2.75,7.32-1.76,12.29H0V18.65ZM43.51,32.46,36.27,17.39,51.11,22,50.64,2l12.3,16.92L72.35,0l3.27,19.87L90,12.36,84.74,29.23l-3.6-1.12,2.56-8.22-11,5.72L70.53,12.13l-7,14.05L54.69,14,55,27.08,43.38,23.51l3.53,7.33-3.4,1.62ZM66,48.57c.36-2,1.38-3.28,3.4-3.36a8.47,8.47,0,0,1,1.15-5.38A7.49,7.49,0,0,1,72.21,38c2.34-1.9,5-2.1,7.86-2.63s5.58-.93,8.37-1.26c3.38-.4,6.75-.67,10.13-.76,1.56-.05,1.18,0,2.42-.92A109.8,109.8,0,0,1,120.6,20.55a16.63,16.63,0,0,1,2.28-.89v2.61a33.18,33.18,0,0,0-3.74,1.79c-3.41,1.81-6.51,3.79-9.82,6-.69.45-1.38.91-2.06,1.38v4.11h15.62V59.23H101.5c2.74-12.59-5.41-17.72-12.89-17-9.62.94-12.16,8.66-10.5,17.14H69.77c-2.38.1-3.48-1.8-3.76-5V48.57Zm25,1.62v3.45h3.45A4.72,4.72,0,0,0,91,50.19Zm3.45,5.69H91v3.45a4.72,4.72,0,0,0,3.45-3.45Zm-5.69,3.45V55.88H85.32a4.71,4.71,0,0,0,3.44,3.45Zm-3.44-5.69h3.44V50.19a4.71,4.71,0,0,0-3.44,3.45Zm4.56-8.44a9.56,9.56,0,1,1-9.56,9.56,9.56,9.56,0,0,1,9.56-9.56Zm-62.22.32A9.69,9.69,0,1,1,18,55.21a9.69,9.69,0,0,1,9.69-9.69Zm1.14,5.06v3.49h3.49a4.76,4.76,0,0,0-3.49-3.49Zm3.49,5.77H28.8v3.48a4.76,4.76,0,0,0,3.49-3.48Zm-5.76,3.48V56.35H23a4.76,4.76,0,0,0,3.49,3.48ZM23,54.07h3.49V50.58A4.76,4.76,0,0,0,23,54.07ZM20,35.83,21.81,25.1l6.4,8.08L27,34.54l-1.14,1.29ZM3.54,21.38V35.73H18l1.93-12.79c-3.79-1.09-8.28-1.4-16.34-1.56Z" fill="#2A55A3"/></svg>
