<svg xmlns="http://www.w3.org/2000/svg" shape-rendering="geometricPrecision" text-rendering="geometricPrecision" image-rendering="optimizeQuality" fill-rule="evenodd" clip-rule="evenodd" viewBox="0 0 512 280.51"><path d="M33.88 114.01C-2.69 95.42 1.5 74.71 38.24 76.87l8.23 15.42 16.95-52.72C70.08 18.82 81.17 0 102.92 0h216.84c21.74 0 34.27 18.45 39.53 39.54l.44 1.76a75.122 75.122 0 0 0-17.71 16.02l-1.55-6.43c-3.49-16.15-13.55-30.14-30.14-30.14H110.12c-16.56 0-25.05 14.36-30.15 30.14l-15.91 53.03v2.5-2.5h256.26l.15 10.22c.07 6.03 2.71 11.43 6.88 15.17l.01.08c.87 8.33 2.39 16.09 4.45 23.23v.09c2.43 8.43 5.57 15.95 9.23 22.45l.39.72c-4.26 2.24-11.15 4.24-17.76 6.16-38.52 11.16-49.62 24.36-54.79 67.03l-.88 7.2c-.1.65-.16 1.3-.19 1.95H80.08v9.93c0 6.79-5.57 12.36-12.36 12.36H14.99c-6.79 0-12.35-5.57-12.35-12.36v-28.48c0-.66.06-1.3.13-1.93-4-51.19-9.63-97.35 31.11-123.73zm307.1-16.42.25 16.3h3.95c.25 35.91 13.04 60.49 29.78 72.26 7.12 5.01 14.97 7.73 22.9 8.04 7.92.31 15.93-1.78 23.33-6.37 17.14-10.66 31.14-34.88 33.72-73.93h4.64V96.64l-3.53.95c-11.68-64.26-97.61-63.38-110 0h-5.04zm17.16 91.89c-1.35 3.98 42.13 40.61 81.5 0 11.57 10.41 38.45 12.51 51.19 19.61 4.02 2.24 7.67 5.1 10.59 8.97 8.07 10.65 8.61 27.97 10.58 41.22-.65 6.88-4.55 10.85-12.24 11.43H300.78c-7.69-.58-11.59-4.55-12.24-11.43 1.96-13.25 2.51-30.58 10.57-41.22 2.93-3.87 6.57-6.73 10.6-8.97 12.74-7.11 36.85-9.2 48.43-19.61zm-8.75-73.05 49 5.13h3.92l48.25-5.23.18-2.44H349.35l.04 2.54zm99.23 14.96c-15.63 16.05-32.25 16.52-48.35-1.67-17.52 18.1-34.49 19.38-50-.67.83 6.95 2.19 13.34 4 19.15 4.23 1.29 7.49 18.09 21 10.18 15.9-4.9 32.23-4.99 49.03 0 11.96 7.09 15-5.34 19-6.97 2.2-5.96 4-12.62 5.32-20.02zm-33.28 2.33c-1.91-1.6-3.56-3.67-4.94-6.19l29.19-4.59c.84-.12 2.1-.5 2.77.18.36.35.34.91-.01 1.64-5.24 10.69-16.48 17.9-27.01 8.96zm-30.17 0c1.9-1.6 3.55-3.67 4.93-6.19l-29.2-4.59c-.83-.12-2.09-.5-2.77.18-.35.35-.33.91.03 1.64 5.22 10.69 16.47 17.9 27.01 8.96zm14.32 31.46c9.78 0 17.7 3.06 17.7 6.84 0 3.79-7.92 6.86-17.7 6.86s-17.7-3.07-17.7-6.86c0-3.78 7.92-6.84 17.7-6.84zm-249.26 50.41h108.82c1.32 0 2.4 1.07 2.4 2.39v17.34a2.4 2.4 0 0 1-2.4 2.4H150.23c-1.33 0-2.4-1.07-2.4-2.4v-17.34c0-1.32 1.07-2.39 2.4-2.39zm-49.04-40.87-46.83-5.9c-11.05-1.23-14.02 3.44-10.26 12.96l5.06 12.29c1.64 3.17 3.8 5.47 6.33 7.07 2.97 1.83 6.53 2.72 10.5 2.89l41.76.33c10.1-.03 14.46-4.06 11.29-13.32-2.59-8.69-8.52-14.15-17.85-16.32z" fill="#2A55A3"/></svg>
