<svg width="62" height="53" viewBox="0 0 62 53" fill="none" xmlns="http://www.w3.org/2000/svg">
<path d="M29.1667 43.75C29.165 40.3054 30.0355 36.9164 31.6971 33.899C33.3587 30.8816 35.7571 28.334 38.669 26.4938C41.5808 24.6535 44.9112 23.5804 48.3497 23.3746C51.7881 23.1688 55.2228 23.8369 58.3333 25.3167V5.83333C58.3333 2.625 55.7083 0 52.5 0H5.83333C2.625 0 0 2.625 0 5.83333V40.8333C0 44.0417 2.625 46.6667 5.83333 46.6667H29.4C29.2542 45.7042 29.1667 44.7417 29.1667 43.75ZM5.83333 5.83333L29.1667 20.4167L52.5 5.83333V11.6667L29.1667 26.25L5.83333 11.6667V5.83333ZM44.7417 52.5L34.4167 42.175L38.5292 38.0625L44.7125 44.2458L57.0792 31.8792L61.25 35.9917L44.7417 52.5Z" fill="#2A55A3"/>
</svg>
