<svg width="56" height="56" viewBox="0 0 56 56" fill="none" xmlns="http://www.w3.org/2000/svg">
<path d="M53.1562 0.65625H2.84375C1.63379 0.65625 0.65625 1.63379 0.65625 2.84375V53.1562C0.65625 54.3662 1.63379 55.3438 2.84375 55.3438H53.1562C54.3662 55.3438 55.3438 54.3662 55.3438 53.1562V2.84375C55.3438 1.63379 54.3662 0.65625 53.1562 0.65625ZM50.9688 50.9688H38.3838V34.166H45.4932L46.5596 25.915H38.3838V20.6445C38.3838 18.252 39.0469 16.625 42.4717 16.625H46.8398V9.24219C46.0811 9.13965 43.4902 8.91406 40.4688 8.91406C34.166 8.91406 29.8525 12.7627 29.8525 19.8242V25.9082H22.7295V34.1592H29.8594V50.9688H5.03125V5.03125H50.9688V50.9688Z" fill="#172B4D"/>
</svg>
