<svg xmlns="http://www.w3.org/2000/svg" shape-rendering="geometricPrecision" text-rendering="geometricPrecision" image-rendering="optimizeQuality" fill-rule="evenodd" clip-rule="evenodd" viewBox="0 0 512 223.615"><path d="M64.284 152.671c18.811 0 33.965 15.257 33.965 33.965 0 18.809-15.259 33.965-33.965 33.965-18.811 0-33.965-15.259-33.965-33.965 0-18.812 15.259-33.965 33.965-33.965zM430.062 34.585L503.534.137a1.764 1.764 0 012.307.943l6.028 14.359c.3.735.076 1.611-.593 2.099l-14.481 10.548v20.338h2.163c.602 0 1.094.494 1.094 1.095v9.826a1.1 1.1 0 01-1.094 1.095h-1.963v9.029c-1.778 1.014-3.431 2.147-4.9 3.448-3.041 2.691-7.417 7.336-6.347 11.611 1.436 5.742 10.663 8.286 14.509-2.449.782-2.187.927-2.859 2.384-4.846a18.087 18.087 0 011.763-2.079c.814-.887 2.085-.621 2.549.343.656 1.37-.673 2.442-1.092 3.813-1.172 3.839.545 7.676-1.634 13.056-3.196 7.892-12.692 10.483-20.12 7.454-7.184-2.931-11.851-10.389-10.862-18.173.955-7.519 7.457-13.21 13.908-16.561V60.44h-1.006c-.6 0-1.094-.492-1.094-1.095v-9.826c0-.603.492-1.095 1.094-1.095h1.505V34.746l-47.404 32.083a23.574 23.574 0 002.761-11.093c0-6.373-2.532-12.171-6.644-16.447l-.312-.341a23.875 23.875 0 00-5.991-4.363zm-10.797 2.935c10.06 0 18.216 8.156 18.216 18.216s-8.156 18.214-18.216 18.214-18.215-8.154-18.215-18.214c0-10.06 8.155-18.216 18.215-18.216zm0 10.119a8.096 8.096 0 018.097 8.097 8.095 8.095 0 01-8.097 8.095 8.095 8.095 0 01-8.095-8.095 8.095 8.095 0 018.095-8.097zm14.337 27.001V126.675h2.355c.341 0 .65.141.872.366l49.839 41.384c1.073.882 1.714 1.898 1.997 2.987.456 1.761-.058 3.623-1.218 5.399-1.061 1.621-2.691 3.208-4.604 4.585-3.68 2.652-8.489 4.582-12.343 4.582h-58.331a1.226 1.226 0 01-1.223-1.179 42.117 42.117 0 00-3.913-13.529 42.9 42.9 0 00-8.252-11.635l-.124-.126a42.773 42.773 0 00-13.742-9.167 42.274 42.274 0 00-16.218-3.214 42.394 42.394 0 00-16.261 3.221l-.05.019a42.616 42.616 0 00-13.762 9.223 42.654 42.654 0 00-8.265 11.634 42.193 42.193 0 00-3.924 13.662 1.22 1.22 0 01-1.213 1.087l-216.776.004a1.225 1.225 0 01-1.224-1.224v-.04c-.779-17.03-10.143-29.127-22.515-35.488-6.051-3.113-12.823-4.861-19.66-5.148-6.835-.286-13.743.882-20.07 3.601-12.978 5.578-23.53 17.72-26.031 37.229a1.22 1.22 0 01-1.208 1.065l-16.514.005A1.225 1.225 0 010 184.754l.026-.253c1.142-7.953 1.989-14.547 2.715-20.216 2.372-18.51 3.527-27.509 8.345-33.549 4.571-5.728 12.15-8.46 26.892-13.766 5.988-2.155 13.193-4.75 22.029-8.214.73-9.198 3.527-20.421 8.502-29.943 4.17-7.977 9.881-14.79 17.205-18.285 3.645-1.739 7.549-2.879 11.855-3.628V46.571c0-2.248.924-4.301 2.408-5.791l.017-.017a8.207 8.207 0 015.796-2.414c7.744 0 15.575.119 23.308 0h3.39a2.742 2.742 0 012.741 2.742v14.344l1.423-.004a1.22 1.22 0 011.223 1.212l.006 70.032H404.93V74.647a23.602 23.602 0 0014.335 4.832 23.613 23.613 0 0014.337-4.839zM144.738 86.154h1.582c.996-4.384 2.957-8.343 5.822-11.908 3.057-3.802 5.312-5.541 7.879-6.511 12.28-4.638 44.012-8.975 58.617-12.003 11.694-8.306 25.787-15.715 42.973-21.955 15.969-5.796 22.451-6.36 39.523-6.334 9.761.015 14.901.61 24.952 1.813 5.099.318 10.104 1.018 15.009 2.013 16.819 3.406 23.868 8.544 38.405 16.937 6.223 3.591 7.55 7.79 8.35 14.649l2.968 25.362h3.072v14.004c-.423 4.709-2.28 5.423-6.206 5.423h-5.095c1.981-44.323-60.361-51.895-59.011 3.513H218.557c8.027-38.199-30.494-51.453-49.415-29.622-5.753 6.64-7.74 15.74-7.23 26.469h-13.801a6.586 6.586 0 01-2.606-2.118c-2.255-3.085-1.754-12.346-1.602-17.717.038-1.438-.414-2.015.835-2.015zm46.056-7.121c11.6 0 21.002 9.402 21.002 21.002 0 11.599-9.402 21.001-21.002 21.001-11.597 0-21.001-9.402-21.001-21.001 0-11.6 9.404-21.002 21.001-21.002zm2.462 10.975v7.565h7.565a10.34 10.34 0 00-7.565-7.565zm7.565 12.49h-7.565v7.563a10.339 10.339 0 007.565-7.563zm-12.49 7.563v-7.563h-7.563a10.331 10.331 0 007.563 7.563zm-7.563-12.488h7.563v-7.565a10.334 10.334 0 00-7.563 7.565zm172.367-18.54c11.599 0 21.001 9.402 21.001 21.002 0 11.597-9.402 21.001-21.001 21.001-11.598 0-21.002-9.404-21.002-21.001 0-11.6 9.404-21.002 21.002-21.002zm2.462 10.975v7.565h7.564a10.337 10.337 0 00-7.564-7.565zm7.564 12.49h-7.564v7.563a10.336 10.336 0 007.564-7.563zm-12.49 7.563v-7.563h-7.563a10.336 10.336 0 007.563 7.563zm-7.563-12.488h7.563v-7.565a10.339 10.339 0 00-7.563 7.565zm-23.709-63.144l-14.925-.245-5.417 26.836 47.162-2.107c5.33-.216 6.265-2.575 3.034-7.058a60.294 60.294 0 00-4.97-6.077c-7.614-8.138-13.346-10.929-24.884-11.349zm-74.344 20.547c-3.303-.754-6.613-.748-9.918-.598 15.642-8.231 30.369-18.561 47.983-20.39 5.995-.621 7.409-.671 13.721-.298l-4.184 27.707-45.207 1.872c.451-1.323.719-2.024.801-3.345.233-3.728.188-4.175-3.196-4.948zm123.642 100.709c18.811 0 33.965 15.257 33.965 33.965 0 18.81-15.259 33.965-33.965 33.965-18.811 0-33.965-15.259-33.965-33.965 0-18.811 15.259-33.965 33.965-33.965zm0 20.9c7.212 0 13.063 5.854 13.063 13.065 0 7.212-5.851 13.062-13.063 13.062-7.212 0-13.063-5.85-13.063-13.062 0-7.211 5.851-13.065 13.063-13.065zM128.871 43.822h-20.697c-2.325 0-4.249 1.924-4.249 4.249v4.345h24.946v-8.594zm-11.953 31.611l-17.473.286c-4.233 4.29-7.46 9.289-9.885 14.498-2.801 6.02-4.543 12.331-5.542 18.172h32.9V75.433zm-52.634 98.138c7.212 0 13.063 5.853 13.063 13.065s-5.851 13.061-13.063 13.061c-7.212 0-13.063-5.849-13.063-13.061s5.851-13.065 13.063-13.065z" fill="#2A55A3"/></svg>
